<mxfile host="app.diagrams.net" modified="2023-11-18T10:38:23.911Z" agent="Mozilla/5.0 (Windows NT 10.0; Win64; x64) AppleWebKit/537.36 (KHTML, like Gecko) Chrome/105.0.0.0 Safari/537.36" etag="SYIBQDi9Dmw0zq_3mh4L" version="22.1.3" type="device">
  <diagram name="第 1 页" id="_m01295M9WdBicg1knEj">
    <mxGraphModel dx="778" dy="468" grid="1" gridSize="15" guides="1" tooltips="1" connect="1" arrows="1" fold="1" page="1" pageScale="1" pageWidth="827" pageHeight="1169" math="0" shadow="0">
      <root>
        <mxCell id="0" />
        <mxCell id="1" parent="0" />
        <mxCell id="LXo1TxD1BBfnTBodcVHC-1" value="&lt;font style=&quot;font-size: 15px;&quot;&gt;.Lfunc_begin0&lt;/font&gt;" style="rounded=0;whiteSpace=wrap;html=1;" vertex="1" parent="1">
          <mxGeometry x="300" y="60" width="120" height="60" as="geometry" />
        </mxCell>
        <mxCell id="LXo1TxD1BBfnTBodcVHC-2" value=".Ltmp11&lt;br&gt;i+=64" style="rounded=0;whiteSpace=wrap;html=1;fontSize=15;" vertex="1" parent="1">
          <mxGeometry x="180" y="450" width="120" height="60" as="geometry" />
        </mxCell>
        <mxCell id="LXo1TxD1BBfnTBodcVHC-3" value=".Ltmp6&lt;br&gt;i+=4" style="rounded=0;whiteSpace=wrap;html=1;fontSize=15;" vertex="1" parent="1">
          <mxGeometry x="420" y="585" width="120" height="60" as="geometry" />
        </mxCell>
        <mxCell id="LXo1TxD1BBfnTBodcVHC-4" value="b+SIZE与a比较" style="rounded=0;whiteSpace=wrap;html=1;fontSize=15;" vertex="1" parent="1">
          <mxGeometry x="300" y="150" width="120" height="45" as="geometry" />
        </mxCell>
        <mxCell id="LXo1TxD1BBfnTBodcVHC-5" value=".Ltmp0" style="rounded=0;whiteSpace=wrap;html=1;fontSize=15;" vertex="1" parent="1">
          <mxGeometry x="420" y="240" width="120" height="60" as="geometry" />
        </mxCell>
        <mxCell id="LXo1TxD1BBfnTBodcVHC-6" value=".Ltmp1&lt;br&gt;i=0" style="rounded=0;whiteSpace=wrap;html=1;fontSize=15;" vertex="1" parent="1">
          <mxGeometry x="420" y="405" width="120" height="60" as="geometry" />
        </mxCell>
        <mxCell id="LXo1TxD1BBfnTBodcVHC-7" value=".LBB0_3&lt;br&gt;循环体" style="rounded=0;whiteSpace=wrap;html=1;fontSize=15;" vertex="1" parent="1">
          <mxGeometry x="180" y="345" width="120" height="60" as="geometry" />
        </mxCell>
        <mxCell id="LXo1TxD1BBfnTBodcVHC-8" value=".LBB0_5&lt;br&gt;循环体" style="rounded=0;whiteSpace=wrap;html=1;fontSize=15;" vertex="1" parent="1">
          <mxGeometry x="420" y="495" width="120" height="60" as="geometry" />
        </mxCell>
        <mxCell id="LXo1TxD1BBfnTBodcVHC-9" value=".LBB0_2&lt;br&gt;i=0" style="rounded=0;whiteSpace=wrap;html=1;fontSize=15;" vertex="1" parent="1">
          <mxGeometry x="180" y="240" width="120" height="60" as="geometry" />
        </mxCell>
        <mxCell id="LXo1TxD1BBfnTBodcVHC-14" value="i与SIZE比较" style="rounded=0;whiteSpace=wrap;html=1;fontSize=15;" vertex="1" parent="1">
          <mxGeometry x="420" y="660" width="120" height="45" as="geometry" />
        </mxCell>
        <mxCell id="LXo1TxD1BBfnTBodcVHC-15" value="a+SIZE与b比较" style="rounded=0;whiteSpace=wrap;html=1;fontSize=15;" vertex="1" parent="1">
          <mxGeometry x="420" y="330" width="120" height="45" as="geometry" />
        </mxCell>
        <mxCell id="LXo1TxD1BBfnTBodcVHC-16" value="i与SIZE比较" style="rounded=0;whiteSpace=wrap;html=1;fontSize=15;" vertex="1" parent="1">
          <mxGeometry x="180" y="540" width="120" height="45" as="geometry" />
        </mxCell>
        <mxCell id="LXo1TxD1BBfnTBodcVHC-17" value=".LBB0_6" style="rounded=0;whiteSpace=wrap;html=1;fontSize=15;" vertex="1" parent="1">
          <mxGeometry x="240" y="690" width="120" height="60" as="geometry" />
        </mxCell>
        <mxCell id="LXo1TxD1BBfnTBodcVHC-18" value="" style="endArrow=classic;html=1;rounded=0;exitX=0.5;exitY=1;exitDx=0;exitDy=0;entryX=0.5;entryY=0;entryDx=0;entryDy=0;" edge="1" parent="1" source="LXo1TxD1BBfnTBodcVHC-1" target="LXo1TxD1BBfnTBodcVHC-4">
          <mxGeometry width="50" height="50" relative="1" as="geometry">
            <mxPoint x="435" y="185" as="sourcePoint" />
            <mxPoint x="485" y="135" as="targetPoint" />
          </mxGeometry>
        </mxCell>
        <mxCell id="LXo1TxD1BBfnTBodcVHC-19" value="" style="endArrow=classic;html=1;rounded=0;exitX=0;exitY=0.5;exitDx=0;exitDy=0;entryX=0.5;entryY=0;entryDx=0;entryDy=0;" edge="1" parent="1" source="LXo1TxD1BBfnTBodcVHC-4" target="LXo1TxD1BBfnTBodcVHC-9">
          <mxGeometry width="50" height="50" relative="1" as="geometry">
            <mxPoint x="435" y="185" as="sourcePoint" />
            <mxPoint x="485" y="135" as="targetPoint" />
          </mxGeometry>
        </mxCell>
        <mxCell id="LXo1TxD1BBfnTBodcVHC-20" value="b+SIZE&amp;lt;=a" style="text;html=1;strokeColor=none;fillColor=none;align=center;verticalAlign=middle;whiteSpace=wrap;rounded=0;" vertex="1" parent="1">
          <mxGeometry x="195" y="180" width="60" height="30" as="geometry" />
        </mxCell>
        <mxCell id="LXo1TxD1BBfnTBodcVHC-21" value="" style="endArrow=classic;html=1;rounded=0;exitX=1;exitY=0.5;exitDx=0;exitDy=0;entryX=0.5;entryY=0;entryDx=0;entryDy=0;" edge="1" parent="1" source="LXo1TxD1BBfnTBodcVHC-4" target="LXo1TxD1BBfnTBodcVHC-5">
          <mxGeometry width="50" height="50" relative="1" as="geometry">
            <mxPoint x="435" y="275" as="sourcePoint" />
            <mxPoint x="485" y="225" as="targetPoint" />
          </mxGeometry>
        </mxCell>
        <mxCell id="LXo1TxD1BBfnTBodcVHC-22" value="b+SIZE&amp;gt;a" style="text;html=1;strokeColor=none;fillColor=none;align=center;verticalAlign=middle;whiteSpace=wrap;rounded=0;" vertex="1" parent="1">
          <mxGeometry x="450" y="180" width="60" height="30" as="geometry" />
        </mxCell>
        <mxCell id="LXo1TxD1BBfnTBodcVHC-23" value="" style="endArrow=classic;html=1;rounded=0;exitX=0.5;exitY=1;exitDx=0;exitDy=0;" edge="1" parent="1" source="LXo1TxD1BBfnTBodcVHC-5">
          <mxGeometry width="50" height="50" relative="1" as="geometry">
            <mxPoint x="435" y="485" as="sourcePoint" />
            <mxPoint x="480" y="330" as="targetPoint" />
          </mxGeometry>
        </mxCell>
        <mxCell id="LXo1TxD1BBfnTBodcVHC-25" value="" style="endArrow=classic;html=1;rounded=0;exitX=0;exitY=0.5;exitDx=0;exitDy=0;entryX=1;entryY=0.5;entryDx=0;entryDy=0;" edge="1" parent="1" source="LXo1TxD1BBfnTBodcVHC-15" target="LXo1TxD1BBfnTBodcVHC-9">
          <mxGeometry width="50" height="50" relative="1" as="geometry">
            <mxPoint x="435" y="275" as="sourcePoint" />
            <mxPoint x="485" y="225" as="targetPoint" />
          </mxGeometry>
        </mxCell>
        <mxCell id="LXo1TxD1BBfnTBodcVHC-26" value="a+SIZE&amp;lt;=b" style="text;html=1;strokeColor=none;fillColor=none;align=center;verticalAlign=middle;whiteSpace=wrap;rounded=0;rotation=45;" vertex="1" parent="1">
          <mxGeometry x="322.5" y="270" width="75" height="30" as="geometry" />
        </mxCell>
        <mxCell id="LXo1TxD1BBfnTBodcVHC-27" value="a+SIZE&amp;gt;b" style="text;html=1;strokeColor=none;fillColor=none;align=center;verticalAlign=middle;whiteSpace=wrap;rounded=0;rotation=0;" vertex="1" parent="1">
          <mxGeometry x="480" y="375" width="75" height="30" as="geometry" />
        </mxCell>
        <mxCell id="LXo1TxD1BBfnTBodcVHC-28" value="" style="endArrow=classic;html=1;rounded=0;exitX=0.5;exitY=1;exitDx=0;exitDy=0;" edge="1" parent="1" source="LXo1TxD1BBfnTBodcVHC-15">
          <mxGeometry width="50" height="50" relative="1" as="geometry">
            <mxPoint x="435" y="485" as="sourcePoint" />
            <mxPoint x="480" y="405" as="targetPoint" />
          </mxGeometry>
        </mxCell>
        <mxCell id="LXo1TxD1BBfnTBodcVHC-29" value="" style="endArrow=classic;html=1;rounded=0;exitX=0.5;exitY=1;exitDx=0;exitDy=0;entryX=0.5;entryY=0;entryDx=0;entryDy=0;" edge="1" parent="1" source="LXo1TxD1BBfnTBodcVHC-6" target="LXo1TxD1BBfnTBodcVHC-8">
          <mxGeometry width="50" height="50" relative="1" as="geometry">
            <mxPoint x="435" y="575" as="sourcePoint" />
            <mxPoint x="485" y="525" as="targetPoint" />
          </mxGeometry>
        </mxCell>
        <mxCell id="LXo1TxD1BBfnTBodcVHC-30" value="" style="endArrow=classic;html=1;rounded=0;exitX=0.5;exitY=1;exitDx=0;exitDy=0;entryX=0.5;entryY=0;entryDx=0;entryDy=0;" edge="1" parent="1" source="LXo1TxD1BBfnTBodcVHC-8" target="LXo1TxD1BBfnTBodcVHC-3">
          <mxGeometry width="50" height="50" relative="1" as="geometry">
            <mxPoint x="435" y="575" as="sourcePoint" />
            <mxPoint x="485" y="525" as="targetPoint" />
          </mxGeometry>
        </mxCell>
        <mxCell id="LXo1TxD1BBfnTBodcVHC-31" value="" style="endArrow=classic;html=1;rounded=0;exitX=0.5;exitY=1;exitDx=0;exitDy=0;entryX=0.5;entryY=0;entryDx=0;entryDy=0;" edge="1" parent="1" source="LXo1TxD1BBfnTBodcVHC-3" target="LXo1TxD1BBfnTBodcVHC-14">
          <mxGeometry width="50" height="50" relative="1" as="geometry">
            <mxPoint x="435" y="575" as="sourcePoint" />
            <mxPoint x="485" y="525" as="targetPoint" />
          </mxGeometry>
        </mxCell>
        <mxCell id="LXo1TxD1BBfnTBodcVHC-32" value="" style="endArrow=classic;html=1;rounded=0;exitX=0;exitY=0.5;exitDx=0;exitDy=0;entryX=1;entryY=0.5;entryDx=0;entryDy=0;" edge="1" parent="1" source="LXo1TxD1BBfnTBodcVHC-14" target="LXo1TxD1BBfnTBodcVHC-17">
          <mxGeometry width="50" height="50" relative="1" as="geometry">
            <mxPoint x="435" y="680" as="sourcePoint" />
            <mxPoint x="485" y="630" as="targetPoint" />
          </mxGeometry>
        </mxCell>
        <mxCell id="LXo1TxD1BBfnTBodcVHC-33" value="i=SIZE" style="text;html=1;strokeColor=none;fillColor=none;align=center;verticalAlign=middle;whiteSpace=wrap;rounded=0;" vertex="1" parent="1">
          <mxGeometry x="375" y="705" width="60" height="30" as="geometry" />
        </mxCell>
        <mxCell id="LXo1TxD1BBfnTBodcVHC-34" value="" style="endArrow=classic;html=1;rounded=0;exitX=1;exitY=0.5;exitDx=0;exitDy=0;entryX=1;entryY=0.5;entryDx=0;entryDy=0;" edge="1" parent="1" source="LXo1TxD1BBfnTBodcVHC-14" target="LXo1TxD1BBfnTBodcVHC-8">
          <mxGeometry width="50" height="50" relative="1" as="geometry">
            <mxPoint x="435" y="575" as="sourcePoint" />
            <mxPoint x="600" y="525" as="targetPoint" />
            <Array as="points">
              <mxPoint x="600" y="683" />
              <mxPoint x="600" y="525" />
            </Array>
          </mxGeometry>
        </mxCell>
        <mxCell id="LXo1TxD1BBfnTBodcVHC-35" value="i!=SIZE" style="text;html=1;strokeColor=none;fillColor=none;align=center;verticalAlign=middle;whiteSpace=wrap;rounded=0;" vertex="1" parent="1">
          <mxGeometry x="600" y="585" width="60" height="30" as="geometry" />
        </mxCell>
        <mxCell id="LXo1TxD1BBfnTBodcVHC-36" value="" style="endArrow=classic;html=1;rounded=0;exitX=0.5;exitY=1;exitDx=0;exitDy=0;entryX=0.5;entryY=0;entryDx=0;entryDy=0;" edge="1" parent="1" source="LXo1TxD1BBfnTBodcVHC-9" target="LXo1TxD1BBfnTBodcVHC-7">
          <mxGeometry width="50" height="50" relative="1" as="geometry">
            <mxPoint x="435" y="380" as="sourcePoint" />
            <mxPoint x="485" y="330" as="targetPoint" />
          </mxGeometry>
        </mxCell>
        <mxCell id="LXo1TxD1BBfnTBodcVHC-37" value="" style="endArrow=classic;html=1;rounded=0;exitX=0.5;exitY=1;exitDx=0;exitDy=0;entryX=0.5;entryY=0;entryDx=0;entryDy=0;" edge="1" parent="1" source="LXo1TxD1BBfnTBodcVHC-7" target="LXo1TxD1BBfnTBodcVHC-2">
          <mxGeometry width="50" height="50" relative="1" as="geometry">
            <mxPoint x="435" y="380" as="sourcePoint" />
            <mxPoint x="485" y="330" as="targetPoint" />
          </mxGeometry>
        </mxCell>
        <mxCell id="LXo1TxD1BBfnTBodcVHC-38" value="" style="endArrow=classic;html=1;rounded=0;exitX=0.5;exitY=1;exitDx=0;exitDy=0;entryX=0.5;entryY=0;entryDx=0;entryDy=0;" edge="1" parent="1" source="LXo1TxD1BBfnTBodcVHC-2" target="LXo1TxD1BBfnTBodcVHC-16">
          <mxGeometry width="50" height="50" relative="1" as="geometry">
            <mxPoint x="435" y="485" as="sourcePoint" />
            <mxPoint x="485" y="435" as="targetPoint" />
          </mxGeometry>
        </mxCell>
        <mxCell id="LXo1TxD1BBfnTBodcVHC-39" value="" style="endArrow=classic;html=1;rounded=0;exitX=0.5;exitY=1;exitDx=0;exitDy=0;entryX=0.5;entryY=0;entryDx=0;entryDy=0;" edge="1" parent="1" source="LXo1TxD1BBfnTBodcVHC-16" target="LXo1TxD1BBfnTBodcVHC-17">
          <mxGeometry width="50" height="50" relative="1" as="geometry">
            <mxPoint x="435" y="485" as="sourcePoint" />
            <mxPoint x="485" y="435" as="targetPoint" />
          </mxGeometry>
        </mxCell>
        <mxCell id="LXo1TxD1BBfnTBodcVHC-40" value="i=SIZE" style="text;html=1;strokeColor=none;fillColor=none;align=center;verticalAlign=middle;whiteSpace=wrap;rounded=0;" vertex="1" parent="1">
          <mxGeometry x="270" y="615" width="60" height="30" as="geometry" />
        </mxCell>
        <mxCell id="LXo1TxD1BBfnTBodcVHC-41" value="" style="endArrow=classic;html=1;rounded=0;exitX=0;exitY=0.5;exitDx=0;exitDy=0;entryX=0;entryY=0.5;entryDx=0;entryDy=0;" edge="1" parent="1" source="LXo1TxD1BBfnTBodcVHC-16" target="LXo1TxD1BBfnTBodcVHC-7">
          <mxGeometry width="50" height="50" relative="1" as="geometry">
            <mxPoint x="435" y="485" as="sourcePoint" />
            <mxPoint x="120" y="360" as="targetPoint" />
            <Array as="points">
              <mxPoint x="120" y="563" />
              <mxPoint x="120" y="375" />
            </Array>
          </mxGeometry>
        </mxCell>
        <mxCell id="LXo1TxD1BBfnTBodcVHC-42" value="i!=SIZE" style="text;html=1;strokeColor=none;fillColor=none;align=center;verticalAlign=middle;whiteSpace=wrap;rounded=0;" vertex="1" parent="1">
          <mxGeometry x="60" y="450" width="60" height="30" as="geometry" />
        </mxCell>
      </root>
    </mxGraphModel>
  </diagram>
</mxfile>
